solid OpenSCAD_Model
  facet normal -1 0 0
    outer loop
      vertex 0 0 0
      vertex 0 20 100
      vertex 0 20 0
    endloop
  endfacet
  facet normal -1 -0 0
    outer loop
      vertex 0 20 100
      vertex 0 0 0
      vertex 0 0 100
    endloop
  endfacet
  facet normal -0 0 1
    outer loop
      vertex 0 20 100
      vertex 40 0 100
      vertex 40 20 100
    endloop
  endfacet
  facet normal 0 0 1
    outer loop
      vertex 40 0 100
      vertex 0 20 100
      vertex 0 0 100
    endloop
  endfacet
  facet normal 1 -0 0
    outer loop
      vertex 40 0 100
      vertex 40 20 0
      vertex 40 20 100
    endloop
  endfacet
  facet normal 1 0 0
    outer loop
      vertex 40 20 0
      vertex 40 0 100
      vertex 40 0 0
    endloop
  endfacet
  facet normal 0 1 -0
    outer loop
      vertex 40 20 0
      vertex 0 20 100
      vertex 40 20 100
    endloop
  endfacet
  facet normal 0 1 0
    outer loop
      vertex 0 20 100
      vertex 40 20 0
      vertex 0 20 0
    endloop
  endfacet
  facet normal 0 0 -1
    outer loop
      vertex 0 0 0
      vertex 40 20 0
      vertex 40 0 0
    endloop
  endfacet
  facet normal -0 0 -1
    outer loop
      vertex 40 20 0
      vertex 0 0 0
      vertex 0 20 0
    endloop
  endfacet
  facet normal 0 -1 0
    outer loop
      vertex 19 0 61
      vertex 20 0 60
      vertex 39 0 61
    endloop
  endfacet
  facet normal 0 -1 0
    outer loop
      vertex 19 0 41
      vertex 20 0 60
      vertex 19 0 61
    endloop
  endfacet
  facet normal 0 -1 -0
    outer loop
      vertex 20 0 60
      vertex 19 0 41
      vertex 20 0 41
    endloop
  endfacet
  facet normal 0 -1 0
    outer loop
      vertex 0 0 100
      vertex 10 0 86
      vertex 40 0 100
    endloop
  endfacet
  facet normal 0 -1 0
    outer loop
      vertex 1 0 81
      vertex 10 0 86
      vertex 0 0 100
    endloop
  endfacet
  facet normal 0 -1 -0
    outer loop
      vertex 10 0 85
      vertex 1 0 81
      vertex 30 0 85
    endloop
  endfacet
  facet normal 0 -1 -0
    outer loop
      vertex 10 0 86
      vertex 1 0 81
      vertex 10 0 85
    endloop
  endfacet
  facet normal 0 -1 0
    outer loop
      vertex 0 0 100
      vertex 1 0 80
      vertex 1 0 81
    endloop
  endfacet
  facet normal 0 -1 0
    outer loop
      vertex 1 0 80
      vertex 1 0 79
      vertex 39 0 80
    endloop
  endfacet
  facet normal 0 -1 0
    outer loop
      vertex 0 0 100
      vertex 1 0 79
      vertex 1 0 80
    endloop
  endfacet
  facet normal 0 -1 0
    outer loop
      vertex 0 0 100
      vertex 1 0 41
      vertex 1 0 79
    endloop
  endfacet
  facet normal 0 -1 0
    outer loop
      vertex 1 0 40
      vertex 19 0 41
      vertex 1 0 41
    endloop
  endfacet
  facet normal 0 -1 -0
    outer loop
      vertex 19 0 41
      vertex 1 0 40
      vertex 20 0 41
    endloop
  endfacet
  facet normal 0 -1 0
    outer loop
      vertex 39 0 40
      vertex 20 0 41
      vertex 1 0 40
    endloop
  endfacet
  facet normal 0 -1 0
    outer loop
      vertex 0 0 100
      vertex 1 0 40
      vertex 1 0 41
    endloop
  endfacet
  facet normal 0 -1 0
    outer loop
      vertex 0 0 0
      vertex 1 0 40
      vertex 0 0 100
    endloop
  endfacet
  facet normal 0 -1 0
    outer loop
      vertex 1 0 26
      vertex 1 0 25
      vertex 39 0 26
    endloop
  endfacet
  facet normal 0 -1 -0
    outer loop
      vertex 1 0 40
      vertex 0 0 0
      vertex 1 0 26
    endloop
  endfacet
  facet normal 0 -1 -0
    outer loop
      vertex 1 0 26
      vertex 0 0 0
      vertex 1 0 25
    endloop
  endfacet
  facet normal 0 -1 -0
    outer loop
      vertex 1 0 1
      vertex 0 0 0
      vertex 39 0 1
    endloop
  endfacet
  facet normal 0 -1 -0
    outer loop
      vertex 1 0 25
      vertex 0 0 0
      vertex 1 0 1
    endloop
  endfacet
  facet normal 0 -1 0
    outer loop
      vertex 30 0 86
      vertex 40 0 100
      vertex 10 0 86
    endloop
  endfacet
  facet normal 0 -1 0
    outer loop
      vertex 39 0 81
      vertex 30 0 86
      vertex 30 0 85
    endloop
  endfacet
  facet normal 0 -1 0
    outer loop
      vertex 39 0 81
      vertex 30 0 85
      vertex 1 0 81
    endloop
  endfacet
  facet normal 0 -1 0
    outer loop
      vertex 30 0 86
      vertex 39 0 81
      vertex 40 0 100
    endloop
  endfacet
  facet normal 0 -1 0
    outer loop
      vertex 39 0 80
      vertex 40 0 100
      vertex 39 0 81
    endloop
  endfacet
  facet normal 0 -1 0
    outer loop
      vertex 39 0 79
      vertex 39 0 80
      vertex 1 0 79
    endloop
  endfacet
  facet normal 0 -1 0
    outer loop
      vertex 39 0 79
      vertex 40 0 100
      vertex 39 0 80
    endloop
  endfacet
  facet normal 0 -1 0
    outer loop
      vertex 39 0 61
      vertex 40 0 100
      vertex 39 0 79
    endloop
  endfacet
  facet normal 0 -1 0
    outer loop
      vertex 39 0 60
      vertex 39 0 61
      vertex 20 0 60
    endloop
  endfacet
  facet normal 0 -1 0
    outer loop
      vertex 39 0 60
      vertex 40 0 100
      vertex 39 0 61
    endloop
  endfacet
  facet normal 0 -1 0
    outer loop
      vertex 39 0 41
      vertex 40 0 100
      vertex 39 0 60
    endloop
  endfacet
  facet normal 0 -1 0
    outer loop
      vertex 20 0 41
      vertex 39 0 40
      vertex 39 0 41
    endloop
  endfacet
  facet normal 0 -1 0
    outer loop
      vertex 39 0 40
      vertex 40 0 100
      vertex 39 0 41
    endloop
  endfacet
  facet normal 0 -1 0
    outer loop
      vertex 40 0 0
      vertex 39 0 40
      vertex 39 0 26
    endloop
  endfacet
  facet normal 0 -1 0
    outer loop
      vertex 39 0 25
      vertex 39 0 26
      vertex 1 0 25
    endloop
  endfacet
  facet normal 0 -1 0
    outer loop
      vertex 40 0 0
      vertex 39 0 26
      vertex 39 0 25
    endloop
  endfacet
  facet normal 0 -1 0
    outer loop
      vertex 40 0 0
      vertex 39 0 25
      vertex 39 0 1
    endloop
  endfacet
  facet normal 0 -1 0
    outer loop
      vertex 39 0 40
      vertex 40 0 0
      vertex 40 0 100
    endloop
  endfacet
  facet normal 0 -1 0
    outer loop
      vertex 40 0 0
      vertex 39 0 1
      vertex 0 0 0
    endloop
  endfacet
  facet normal 1 -0 0
    outer loop
      vertex 1 0 81
      vertex 1 19 80
      vertex 1 19 81
    endloop
  endfacet
  facet normal 1 0 0
    outer loop
      vertex 1 19 80
      vertex 1 0 81
      vertex 1 0 80
    endloop
  endfacet
  facet normal 1 -0 0
    outer loop
      vertex 1 0 79
      vertex 1 19 41
      vertex 1 19 79
    endloop
  endfacet
  facet normal 1 0 0
    outer loop
      vertex 1 19 41
      vertex 1 0 79
      vertex 1 0 41
    endloop
  endfacet
  facet normal 1 -0 0
    outer loop
      vertex 1 0 40
      vertex 1 19 26
      vertex 1 19 40
    endloop
  endfacet
  facet normal 1 0 0
    outer loop
      vertex 1 19 26
      vertex 1 0 40
      vertex 1 0 26
    endloop
  endfacet
  facet normal 1 -0 0
    outer loop
      vertex 1 0 25
      vertex 1 19 1
      vertex 1 19 25
    endloop
  endfacet
  facet normal 1 0 0
    outer loop
      vertex 1 19 1
      vertex 1 0 25
      vertex 1 0 1
    endloop
  endfacet
  facet normal -1 0 0
    outer loop
      vertex 39 0 80
      vertex 39 19 81
      vertex 39 19 80
    endloop
  endfacet
  facet normal -1 -0 0
    outer loop
      vertex 39 19 81
      vertex 39 0 80
      vertex 39 0 81
    endloop
  endfacet
  facet normal -1 0 0
    outer loop
      vertex 39 0 61
      vertex 39 19 79
      vertex 39 19 61
    endloop
  endfacet
  facet normal -1 -0 0
    outer loop
      vertex 39 19 79
      vertex 39 0 61
      vertex 39 0 79
    endloop
  endfacet
  facet normal -1 0 0
    outer loop
      vertex 39 0 41
      vertex 39 19 60
      vertex 39 19 41
    endloop
  endfacet
  facet normal -1 -0 0
    outer loop
      vertex 39 19 60
      vertex 39 0 41
      vertex 39 0 60
    endloop
  endfacet
  facet normal -1 0 0
    outer loop
      vertex 39 0 26
      vertex 39 19 40
      vertex 39 19 26
    endloop
  endfacet
  facet normal -1 -0 0
    outer loop
      vertex 39 19 40
      vertex 39 0 26
      vertex 39 0 40
    endloop
  endfacet
  facet normal -1 0 0
    outer loop
      vertex 39 0 1
      vertex 39 19 25
      vertex 39 19 1
    endloop
  endfacet
  facet normal -1 -0 0
    outer loop
      vertex 39 19 25
      vertex 39 0 1
      vertex 39 0 25
    endloop
  endfacet
  facet normal 0 -1 0
    outer loop
      vertex 1 19 80
      vertex 39 19 81
      vertex 1 19 81
    endloop
  endfacet
  facet normal 0 -1 -0
    outer loop
      vertex 39 19 81
      vertex 1 19 80
      vertex 39 19 80
    endloop
  endfacet
  facet normal 0 -1 0
    outer loop
      vertex 1 19 79
      vertex 19 19 61
      vertex 39 19 79
    endloop
  endfacet
  facet normal 0 -1 0
    outer loop
      vertex 1 19 41
      vertex 19 19 61
      vertex 1 19 79
    endloop
  endfacet
  facet normal 0 -1 -0
    outer loop
      vertex 19 19 61
      vertex 1 19 41
      vertex 19 19 41
    endloop
  endfacet
  facet normal 0 -1 -0
    outer loop
      vertex 39 19 79
      vertex 19 19 61
      vertex 39 19 61
    endloop
  endfacet
  facet normal 0 -1 0
    outer loop
      vertex 20 19 41
      vertex 39 19 60
      vertex 20 19 60
    endloop
  endfacet
  facet normal 0 -1 -0
    outer loop
      vertex 39 19 60
      vertex 20 19 41
      vertex 39 19 41
    endloop
  endfacet
  facet normal 0 -1 0
    outer loop
      vertex 1 19 26
      vertex 39 19 40
      vertex 1 19 40
    endloop
  endfacet
  facet normal 0 -1 -0
    outer loop
      vertex 39 19 40
      vertex 1 19 26
      vertex 39 19 26
    endloop
  endfacet
  facet normal 0 -1 0
    outer loop
      vertex 1 19 1
      vertex 39 19 25
      vertex 1 19 25
    endloop
  endfacet
  facet normal 0 -1 -0
    outer loop
      vertex 39 19 25
      vertex 1 19 1
      vertex 39 19 1
    endloop
  endfacet
  facet normal -0 0 1
    outer loop
      vertex 1 19 1
      vertex 39 0 1
      vertex 39 19 1
    endloop
  endfacet
  facet normal 0 0 1
    outer loop
      vertex 39 0 1
      vertex 1 19 1
      vertex 1 0 1
    endloop
  endfacet
  facet normal -0 0 1
    outer loop
      vertex 1 19 26
      vertex 39 0 26
      vertex 39 19 26
    endloop
  endfacet
  facet normal 0 0 1
    outer loop
      vertex 39 0 26
      vertex 1 19 26
      vertex 1 0 26
    endloop
  endfacet
  facet normal 0 0 -1
    outer loop
      vertex 1 0 25
      vertex 39 19 25
      vertex 39 0 25
    endloop
  endfacet
  facet normal -0 0 -1
    outer loop
      vertex 39 19 25
      vertex 1 0 25
      vertex 1 19 25
    endloop
  endfacet
  facet normal -0 0 1
    outer loop
      vertex 1 19 41
      vertex 19 0 41
      vertex 19 19 41
    endloop
  endfacet
  facet normal 0 0 1
    outer loop
      vertex 19 0 41
      vertex 1 19 41
      vertex 1 0 41
    endloop
  endfacet
  facet normal -0 0 1
    outer loop
      vertex 20 19 41
      vertex 39 0 41
      vertex 39 19 41
    endloop
  endfacet
  facet normal 0 0 1
    outer loop
      vertex 39 0 41
      vertex 20 19 41
      vertex 20 0 41
    endloop
  endfacet
  facet normal 0 0 -1
    outer loop
      vertex 1 0 40
      vertex 39 19 40
      vertex 39 0 40
    endloop
  endfacet
  facet normal -0 0 -1
    outer loop
      vertex 39 19 40
      vertex 1 0 40
      vertex 1 19 40
    endloop
  endfacet
  facet normal 0 0 -1
    outer loop
      vertex 1 0 81
      vertex 39 19 81
      vertex 39 0 81
    endloop
  endfacet
  facet normal -0 0 -1
    outer loop
      vertex 39 19 81
      vertex 1 0 81
      vertex 1 19 81
    endloop
  endfacet
  facet normal -1 0 0
    outer loop
      vertex 19 0 41
      vertex 19 19 61
      vertex 19 19 41
    endloop
  endfacet
  facet normal -1 -0 0
    outer loop
      vertex 19 19 61
      vertex 19 0 41
      vertex 19 0 61
    endloop
  endfacet
  facet normal 0 0 -1
    outer loop
      vertex 20 0 60
      vertex 39 19 60
      vertex 39 0 60
    endloop
  endfacet
  facet normal -0 0 -1
    outer loop
      vertex 39 19 60
      vertex 20 0 60
      vertex 20 19 60
    endloop
  endfacet
  facet normal 1 -0 0
    outer loop
      vertex 20 0 60
      vertex 20 19 41
      vertex 20 19 60
    endloop
  endfacet
  facet normal 1 0 0
    outer loop
      vertex 20 19 41
      vertex 20 0 60
      vertex 20 0 41
    endloop
  endfacet
  facet normal -0 0 1
    outer loop
      vertex 19 19 61
      vertex 39 0 61
      vertex 39 19 61
    endloop
  endfacet
  facet normal 0 0 1
    outer loop
      vertex 39 0 61
      vertex 19 19 61
      vertex 19 0 61
    endloop
  endfacet
  facet normal -0 0 1
    outer loop
      vertex 1 19 80
      vertex 39 0 80
      vertex 39 19 80
    endloop
  endfacet
  facet normal 0 0 1
    outer loop
      vertex 39 0 80
      vertex 1 19 80
      vertex 1 0 80
    endloop
  endfacet
  facet normal 0 0 -1
    outer loop
      vertex 1 0 79
      vertex 39 19 79
      vertex 39 0 79
    endloop
  endfacet
  facet normal -0 0 -1
    outer loop
      vertex 39 19 79
      vertex 1 0 79
      vertex 1 19 79
    endloop
  endfacet
  facet normal -1 0 0
    outer loop
      vertex 10 -1 85
      vertex 10 0 86
      vertex 10 0 85
    endloop
  endfacet
  facet normal -1 -0 0
    outer loop
      vertex 10 0 86
      vertex 10 -1 85
      vertex 10 -1 86
    endloop
  endfacet
  facet normal -0 0 1
    outer loop
      vertex 10 0 86
      vertex 30 -1 86
      vertex 30 0 86
    endloop
  endfacet
  facet normal 0 0 1
    outer loop
      vertex 30 -1 86
      vertex 10 0 86
      vertex 10 -1 86
    endloop
  endfacet
  facet normal 1 -0 0
    outer loop
      vertex 30 -1 86
      vertex 30 0 85
      vertex 30 0 86
    endloop
  endfacet
  facet normal 1 0 0
    outer loop
      vertex 30 0 85
      vertex 30 -1 86
      vertex 30 -1 85
    endloop
  endfacet
  facet normal 0 0 -1
    outer loop
      vertex 10 -1 85
      vertex 30 0 85
      vertex 30 -1 85
    endloop
  endfacet
  facet normal -0 0 -1
    outer loop
      vertex 30 0 85
      vertex 10 -1 85
      vertex 10 0 85
    endloop
  endfacet
  facet normal 0 -1 0
    outer loop
      vertex 10 -1 85
      vertex 30 -1 86
      vertex 10 -1 86
    endloop
  endfacet
  facet normal 0 -1 -0
    outer loop
      vertex 30 -1 86
      vertex 10 -1 85
      vertex 30 -1 85
    endloop
  endfacet
endsolid OpenSCAD_Model
