solid OpenSCAD_Model
  facet normal -1 0 0
    outer loop
      vertex 0 0 0
      vertex 0 0 100
      vertex 0 20 0
    endloop
  endfacet
  facet normal -1 0 0
    outer loop
      vertex 0 20 0
      vertex 0 0 100
      vertex 0 20 100
    endloop
  endfacet
  facet normal 0 -1 0
    outer loop
      vertex 1 0 1
      vertex 0 0 0
      vertex 50 0 0
    endloop
  endfacet
  facet normal 0 -1 0
    outer loop
      vertex 49 0 26
      vertex 49 0 1
      vertex 50 0 0
    endloop
  endfacet
  facet normal 0 -1 0
    outer loop
      vertex 0 0 100
      vertex 0 0 0
      vertex 1 0 1
    endloop
  endfacet
  facet normal 0 -1 0
    outer loop
      vertex 0 0 100
      vertex 1 0 1
      vertex 1 0 26
    endloop
  endfacet
  facet normal 0 -1 0
    outer loop
      vertex 50 0 100
      vertex 49 0 26
      vertex 50 0 0
    endloop
  endfacet
  facet normal 0 -1 0
    outer loop
      vertex 1 0 80
      vertex 24 0 82
      vertex 1 0 82
    endloop
  endfacet
  facet normal 0 -1 0
    outer loop
      vertex 1 0 80
      vertex 49 0 80
      vertex 24 0 82
    endloop
  endfacet
  facet normal 0 -1 0
    outer loop
      vertex 0 0 100
      vertex 1 0 26
      vertex 1 0 28
    endloop
  endfacet
  facet normal 0 -1 0
    outer loop
      vertex 49 0 28
      vertex 1 0 28
      vertex 49 0 26
    endloop
  endfacet
  facet normal 0 -1 0
    outer loop
      vertex 0 0 100
      vertex 1 0 28
      vertex 1 0 80
    endloop
  endfacet
  facet normal 0 -1 0
    outer loop
      vertex 50 0 100
      vertex 49 0 28
      vertex 49 0 26
    endloop
  endfacet
  facet normal 0 -1 0
    outer loop
      vertex 50 0 100
      vertex 49 0 80
      vertex 49 0 28
    endloop
  endfacet
  facet normal 0 -1 0
    outer loop
      vertex 0 0 100
      vertex 1 0 80
      vertex 1 0 82
    endloop
  endfacet
  facet normal 0 -1 0
    outer loop
      vertex 24 0 99
      vertex 24 0 82
      vertex 26 0 82
    endloop
  endfacet
  facet normal 0 -1 0
    outer loop
      vertex 50 0 100
      vertex 0 0 100
      vertex 24 0 99
    endloop
  endfacet
  facet normal 0 -1 0
    outer loop
      vertex 1 0 99
      vertex 24 0 99
      vertex 0 0 100
    endloop
  endfacet
  facet normal 0 -1 0
    outer loop
      vertex 49 0 82
      vertex 26 0 82
      vertex 49 0 80
    endloop
  endfacet
  facet normal 0 -1 0
    outer loop
      vertex 26 0 82
      vertex 26 0 99
      vertex 24 0 99
    endloop
  endfacet
  facet normal 0 -1 0
    outer loop
      vertex 24 0 82
      vertex 49 0 80
      vertex 26 0 82
    endloop
  endfacet
  facet normal 0 -1 0
    outer loop
      vertex 50 0 100
      vertex 24 0 99
      vertex 26 0 99
    endloop
  endfacet
  facet normal 0 -1 0
    outer loop
      vertex 50 0 100
      vertex 26 0 99
      vertex 49 0 99
    endloop
  endfacet
  facet normal 0 -1 0
    outer loop
      vertex 50 0 100
      vertex 49 0 82
      vertex 49 0 80
    endloop
  endfacet
  facet normal 0 -1 0
    outer loop
      vertex 50 0 100
      vertex 49 0 99
      vertex 49 0 82
    endloop
  endfacet
  facet normal 0 -1 0
    outer loop
      vertex 49 0 1
      vertex 1 0 1
      vertex 50 0 0
    endloop
  endfacet
  facet normal 0 -1 0
    outer loop
      vertex 1 0 82
      vertex 1 0 99
      vertex 0 0 100
    endloop
  endfacet
  facet normal 0 -1 0
    outer loop
      vertex 1 0 26
      vertex 49 0 26
      vertex 1 0 28
    endloop
  endfacet
  facet normal 0 0 -1
    outer loop
      vertex 0 0 0
      vertex 0 20 0
      vertex 50 0 0
    endloop
  endfacet
  facet normal 0 0 -1
    outer loop
      vertex 50 0 0
      vertex 0 20 0
      vertex 50 20 0
    endloop
  endfacet
  facet normal 0 1 0
    outer loop
      vertex 0 20 0
      vertex 0 20 100
      vertex 50 20 0
    endloop
  endfacet
  facet normal 0 1 0
    outer loop
      vertex 50 20 0
      vertex 0 20 100
      vertex 50 20 100
    endloop
  endfacet
  facet normal 0 0 1
    outer loop
      vertex 0 20 100
      vertex 0 0 100
      vertex 50 0 100
    endloop
  endfacet
  facet normal 0 0 1
    outer loop
      vertex 50 20 100
      vertex 0 20 100
      vertex 50 0 100
    endloop
  endfacet
  facet normal 1 0 0
    outer loop
      vertex 50 0 100
      vertex 50 0 0
      vertex 50 20 0
    endloop
  endfacet
  facet normal 1 0 0
    outer loop
      vertex 50 20 100
      vertex 50 0 100
      vertex 50 20 0
    endloop
  endfacet
  facet normal 1 0 0
    outer loop
      vertex 1 19 13
      vertex 1 2 12
      vertex 1 19 12
    endloop
  endfacet
  facet normal 1 0 0
    outer loop
      vertex 1 2 13
      vertex 1 2 12
      vertex 1 19 13
    endloop
  endfacet
  facet normal 1 0 0
    outer loop
      vertex 1 2 1
      vertex 1 2 12
      vertex 1 0 26
    endloop
  endfacet
  facet normal 1 0 0
    outer loop
      vertex 1 0 26
      vertex 1 2 12
      vertex 1 2 13
    endloop
  endfacet
  facet normal 1 0 0
    outer loop
      vertex 1 0 26
      vertex 1 2 13
      vertex 1 2 25
    endloop
  endfacet
  facet normal 1 0 0
    outer loop
      vertex 1 19 26
      vertex 1 2 25
      vertex 1 19 25
    endloop
  endfacet
  facet normal 1 0 0
    outer loop
      vertex 1 0 26
      vertex 1 2 25
      vertex 1 19 26
    endloop
  endfacet
  facet normal 1 0 0
    outer loop
      vertex 1 0 1
      vertex 1 2 1
      vertex 1 0 26
    endloop
  endfacet
  facet normal 0 0 1
    outer loop
      vertex 49 0 1
      vertex 49 2 1
      vertex 1 2 1
    endloop
  endfacet
  facet normal 0 0 1
    outer loop
      vertex 1 0 1
      vertex 49 0 1
      vertex 1 2 1
    endloop
  endfacet
  facet normal -1 0 0
    outer loop
      vertex 49 19 26
      vertex 49 19 25
      vertex 49 0 26
    endloop
  endfacet
  facet normal -1 0 0
    outer loop
      vertex 49 0 26
      vertex 49 19 25
      vertex 49 2 25
    endloop
  endfacet
  facet normal -1 0 0
    outer loop
      vertex 49 0 26
      vertex 49 2 25
      vertex 49 2 13
    endloop
  endfacet
  facet normal -1 0 0
    outer loop
      vertex 49 2 13
      vertex 49 19 13
      vertex 49 19 12
    endloop
  endfacet
  facet normal -1 0 0
    outer loop
      vertex 49 2 13
      vertex 49 19 12
      vertex 49 2 12
    endloop
  endfacet
  facet normal -1 0 0
    outer loop
      vertex 49 2 13
      vertex 49 2 12
      vertex 49 0 26
    endloop
  endfacet
  facet normal -1 0 0
    outer loop
      vertex 49 2 12
      vertex 49 2 1
      vertex 49 0 26
    endloop
  endfacet
  facet normal -1 0 0
    outer loop
      vertex 49 0 26
      vertex 49 2 1
      vertex 49 0 1
    endloop
  endfacet
  facet normal 0 0 -1
    outer loop
      vertex 1 0 26
      vertex 1 19 26
      vertex 49 0 26
    endloop
  endfacet
  facet normal 0 0 -1
    outer loop
      vertex 49 0 26
      vertex 1 19 26
      vertex 49 19 26
    endloop
  endfacet
  facet normal 1 0 0
    outer loop
      vertex 1 8 77
      vertex 1 19 80
      vertex 1 0 80
    endloop
  endfacet
  facet normal 1 0 0
    outer loop
      vertex 1 0 28
      vertex 1 19 28
      vertex 1 0 80
    endloop
  endfacet
  facet normal 1 0 0
    outer loop
      vertex 1 8 75
      vertex 1 8 77
      vertex 1 0 80
    endloop
  endfacet
  facet normal 1 0 0
    outer loop
      vertex 1 9 77
      vertex 1 19 80
      vertex 1 8 77
    endloop
  endfacet
  facet normal 1 0 0
    outer loop
      vertex 1 19 28
      vertex 1 19 80
      vertex 1 9 77
    endloop
  endfacet
  facet normal 1 0 0
    outer loop
      vertex 1 19 28
      vertex 1 9 77
      vertex 1 9 75
    endloop
  endfacet
  facet normal 1 0 0
    outer loop
      vertex 1 19 28
      vertex 1 8 75
      vertex 1 0 80
    endloop
  endfacet
  facet normal 1 0 0
    outer loop
      vertex 1 9 75
      vertex 1 8 75
      vertex 1 19 28
    endloop
  endfacet
  facet normal 0 0 1
    outer loop
      vertex 1 19 28
      vertex 1 0 28
      vertex 49 0 28
    endloop
  endfacet
  facet normal 0 0 1
    outer loop
      vertex 49 19 28
      vertex 1 19 28
      vertex 49 0 28
    endloop
  endfacet
  facet normal -1 0 0
    outer loop
      vertex 49 8 75
      vertex 49 19 28
      vertex 49 0 80
    endloop
  endfacet
  facet normal -1 0 0
    outer loop
      vertex 49 0 80
      vertex 49 19 28
      vertex 49 0 28
    endloop
  endfacet
  facet normal -1 0 0
    outer loop
      vertex 49 9 75
      vertex 49 19 28
      vertex 49 8 75
    endloop
  endfacet
  facet normal -1 0 0
    outer loop
      vertex 49 8 77
      vertex 49 8 75
      vertex 49 0 80
    endloop
  endfacet
  facet normal -1 0 0
    outer loop
      vertex 49 19 80
      vertex 49 19 28
      vertex 49 9 75
    endloop
  endfacet
  facet normal -1 0 0
    outer loop
      vertex 49 19 80
      vertex 49 9 77
      vertex 49 0 80
    endloop
  endfacet
  facet normal -1 0 0
    outer loop
      vertex 49 9 77
      vertex 49 8 77
      vertex 49 0 80
    endloop
  endfacet
  facet normal -1 0 0
    outer loop
      vertex 49 9 77
      vertex 49 19 80
      vertex 49 9 75
    endloop
  endfacet
  facet normal 0 0 -1
    outer loop
      vertex 1 0 80
      vertex 1 19 80
      vertex 49 0 80
    endloop
  endfacet
  facet normal 0 0 -1
    outer loop
      vertex 49 0 80
      vertex 1 19 80
      vertex 49 19 80
    endloop
  endfacet
  facet normal 1 0 0
    outer loop
      vertex 1 19 82
      vertex 1 19 99
      vertex 1 0 99
    endloop
  endfacet
  facet normal 1 0 0
    outer loop
      vertex 1 0 82
      vertex 1 19 82
      vertex 1 0 99
    endloop
  endfacet
  facet normal 0 0 1
    outer loop
      vertex 1 19 82
      vertex 1 0 82
      vertex 24 0 82
    endloop
  endfacet
  facet normal 0 0 1
    outer loop
      vertex 24 19 82
      vertex 1 19 82
      vertex 24 0 82
    endloop
  endfacet
  facet normal -1 0 0
    outer loop
      vertex 24 0 82
      vertex 24 0 99
      vertex 24 19 82
    endloop
  endfacet
  facet normal -1 0 0
    outer loop
      vertex 24 19 82
      vertex 24 0 99
      vertex 24 19 99
    endloop
  endfacet
  facet normal 0 0 -1
    outer loop
      vertex 24 19 99
      vertex 24 0 99
      vertex 1 19 99
    endloop
  endfacet
  facet normal 0 0 -1
    outer loop
      vertex 1 19 99
      vertex 24 0 99
      vertex 1 0 99
    endloop
  endfacet
  facet normal 1 0 0
    outer loop
      vertex 26 0 99
      vertex 26 0 82
      vertex 26 19 82
    endloop
  endfacet
  facet normal 1 0 0
    outer loop
      vertex 26 19 99
      vertex 26 0 99
      vertex 26 19 82
    endloop
  endfacet
  facet normal 0 0 1
    outer loop
      vertex 26 19 82
      vertex 26 0 82
      vertex 49 0 82
    endloop
  endfacet
  facet normal 0 0 1
    outer loop
      vertex 49 19 82
      vertex 26 19 82
      vertex 49 0 82
    endloop
  endfacet
  facet normal -1 0 0
    outer loop
      vertex 49 19 99
      vertex 49 19 82
      vertex 49 0 99
    endloop
  endfacet
  facet normal -1 0 0
    outer loop
      vertex 49 0 99
      vertex 49 19 82
      vertex 49 0 82
    endloop
  endfacet
  facet normal 0 0 -1
    outer loop
      vertex 49 19 99
      vertex 49 0 99
      vertex 26 19 99
    endloop
  endfacet
  facet normal 0 0 -1
    outer loop
      vertex 26 19 99
      vertex 49 0 99
      vertex 26 0 99
    endloop
  endfacet
  facet normal 0 -1 0
    outer loop
      vertex 17 2 6
      vertex 1 2 1
      vertex 49 2 1
    endloop
  endfacet
  facet normal 0 -1 0
    outer loop
      vertex 1 2 12
      vertex 1 2 1
      vertex 17 2 6
    endloop
  endfacet
  facet normal 0 -1 0
    outer loop
      vertex 17 2 8
      vertex 32 2 8
      vertex 1 2 12
    endloop
  endfacet
  facet normal 0 -1 0
    outer loop
      vertex 1 2 12
      vertex 17 2 6
      vertex 17 2 8
    endloop
  endfacet
  facet normal 0 -1 0
    outer loop
      vertex 49 2 12
      vertex 32 2 8
      vertex 49 2 1
    endloop
  endfacet
  facet normal 0 -1 0
    outer loop
      vertex 49 2 12
      vertex 1 2 12
      vertex 32 2 8
    endloop
  endfacet
  facet normal 0 -1 0
    outer loop
      vertex 32 2 8
      vertex 32 2 6
      vertex 49 2 1
    endloop
  endfacet
  facet normal 0 -1 0
    outer loop
      vertex 32 2 6
      vertex 17 2 6
      vertex 49 2 1
    endloop
  endfacet
  facet normal 0 -1 0
    outer loop
      vertex 49 19 25
      vertex 49 19 26
      vertex 1 19 26
    endloop
  endfacet
  facet normal 0 -1 0
    outer loop
      vertex 1 19 25
      vertex 49 19 25
      vertex 1 19 26
    endloop
  endfacet
  facet normal 0 0 1
    outer loop
      vertex 1 19 25
      vertex 1 2 25
      vertex 49 2 25
    endloop
  endfacet
  facet normal 0 0 1
    outer loop
      vertex 49 19 25
      vertex 1 19 25
      vertex 49 2 25
    endloop
  endfacet
  facet normal 0 -1 0
    outer loop
      vertex 17 2 18
      vertex 1 2 13
      vertex 49 2 13
    endloop
  endfacet
  facet normal 0 -1 0
    outer loop
      vertex 1 2 25
      vertex 1 2 13
      vertex 17 2 18
    endloop
  endfacet
  facet normal 0 -1 0
    outer loop
      vertex 17 2 20
      vertex 32 2 20
      vertex 1 2 25
    endloop
  endfacet
  facet normal 0 -1 0
    outer loop
      vertex 1 2 25
      vertex 17 2 18
      vertex 17 2 20
    endloop
  endfacet
  facet normal 0 -1 0
    outer loop
      vertex 49 2 25
      vertex 32 2 20
      vertex 49 2 13
    endloop
  endfacet
  facet normal 0 -1 0
    outer loop
      vertex 49 2 25
      vertex 1 2 25
      vertex 32 2 20
    endloop
  endfacet
  facet normal 0 -1 0
    outer loop
      vertex 32 2 20
      vertex 32 2 18
      vertex 49 2 13
    endloop
  endfacet
  facet normal 0 -1 0
    outer loop
      vertex 32 2 18
      vertex 17 2 18
      vertex 49 2 13
    endloop
  endfacet
  facet normal 0 0 -1
    outer loop
      vertex 1 2 13
      vertex 1 19 13
      vertex 49 2 13
    endloop
  endfacet
  facet normal 0 0 -1
    outer loop
      vertex 49 2 13
      vertex 1 19 13
      vertex 49 19 13
    endloop
  endfacet
  facet normal 0 -1 0
    outer loop
      vertex 49 19 12
      vertex 49 19 13
      vertex 1 19 13
    endloop
  endfacet
  facet normal 0 -1 0
    outer loop
      vertex 1 19 12
      vertex 49 19 12
      vertex 1 19 13
    endloop
  endfacet
  facet normal 0 0 1
    outer loop
      vertex 1 19 12
      vertex 1 2 12
      vertex 49 2 12
    endloop
  endfacet
  facet normal 0 0 1
    outer loop
      vertex 49 19 12
      vertex 1 19 12
      vertex 49 2 12
    endloop
  endfacet
  facet normal 0 -1 0
    outer loop
      vertex 49 19 28
      vertex 49 19 80
      vertex 1 19 80
    endloop
  endfacet
  facet normal 0 -1 0
    outer loop
      vertex 1 19 28
      vertex 49 19 28
      vertex 1 19 80
    endloop
  endfacet
  facet normal 0 -1 0
    outer loop
      vertex 1 8 77
      vertex 1 8 75
      vertex 49 8 75
    endloop
  endfacet
  facet normal 0 -1 0
    outer loop
      vertex 49 8 77
      vertex 1 8 77
      vertex 49 8 75
    endloop
  endfacet
  facet normal 0 0 1
    outer loop
      vertex 1 9 77
      vertex 1 8 77
      vertex 49 8 77
    endloop
  endfacet
  facet normal 0 0 1
    outer loop
      vertex 49 9 77
      vertex 1 9 77
      vertex 49 8 77
    endloop
  endfacet
  facet normal 0 0 -1
    outer loop
      vertex 1 8 75
      vertex 1 9 75
      vertex 49 8 75
    endloop
  endfacet
  facet normal 0 0 -1
    outer loop
      vertex 49 8 75
      vertex 1 9 75
      vertex 49 9 75
    endloop
  endfacet
  facet normal 0 1 0
    outer loop
      vertex 1 9 75
      vertex 1 9 77
      vertex 49 9 75
    endloop
  endfacet
  facet normal 0 1 0
    outer loop
      vertex 49 9 75
      vertex 1 9 77
      vertex 49 9 77
    endloop
  endfacet
  facet normal 0 -1 0
    outer loop
      vertex 24 19 82
      vertex 24 19 99
      vertex 1 19 99
    endloop
  endfacet
  facet normal 0 -1 0
    outer loop
      vertex 1 19 82
      vertex 24 19 82
      vertex 1 19 99
    endloop
  endfacet
  facet normal 0 -1 0
    outer loop
      vertex 49 19 82
      vertex 49 19 99
      vertex 26 19 99
    endloop
  endfacet
  facet normal 0 -1 0
    outer loop
      vertex 26 19 82
      vertex 49 19 82
      vertex 26 19 99
    endloop
  endfacet
  facet normal -1 0 0
    outer loop
      vertex 17 0 6
      vertex 17 0 8
      vertex 17 2 6
    endloop
  endfacet
  facet normal -1 0 0
    outer loop
      vertex 17 2 6
      vertex 17 0 8
      vertex 17 2 8
    endloop
  endfacet
  facet normal 0 0 -1
    outer loop
      vertex 17 0 6
      vertex 17 2 6
      vertex 32 0 6
    endloop
  endfacet
  facet normal 0 0 -1
    outer loop
      vertex 32 0 6
      vertex 17 2 6
      vertex 32 2 6
    endloop
  endfacet
  facet normal 1 0 0
    outer loop
      vertex 32 0 8
      vertex 32 0 6
      vertex 32 2 6
    endloop
  endfacet
  facet normal 1 0 0
    outer loop
      vertex 32 2 8
      vertex 32 0 8
      vertex 32 2 6
    endloop
  endfacet
  facet normal 0 0 1
    outer loop
      vertex 17 2 8
      vertex 17 0 8
      vertex 32 0 8
    endloop
  endfacet
  facet normal 0 0 1
    outer loop
      vertex 32 2 8
      vertex 17 2 8
      vertex 32 0 8
    endloop
  endfacet
  facet normal -1 0 0
    outer loop
      vertex 17 0 18
      vertex 17 0 20
      vertex 17 2 18
    endloop
  endfacet
  facet normal -1 0 0
    outer loop
      vertex 17 2 18
      vertex 17 0 20
      vertex 17 2 20
    endloop
  endfacet
  facet normal 0 0 -1
    outer loop
      vertex 17 0 18
      vertex 17 2 18
      vertex 32 0 18
    endloop
  endfacet
  facet normal 0 0 -1
    outer loop
      vertex 32 0 18
      vertex 17 2 18
      vertex 32 2 18
    endloop
  endfacet
  facet normal 1 0 0
    outer loop
      vertex 32 0 20
      vertex 32 0 18
      vertex 32 2 18
    endloop
  endfacet
  facet normal 1 0 0
    outer loop
      vertex 32 2 20
      vertex 32 0 20
      vertex 32 2 18
    endloop
  endfacet
  facet normal 0 0 1
    outer loop
      vertex 17 2 20
      vertex 17 0 20
      vertex 32 0 20
    endloop
  endfacet
  facet normal 0 0 1
    outer loop
      vertex 32 2 20
      vertex 17 2 20
      vertex 32 0 20
    endloop
  endfacet
  facet normal 0 -1 0
    outer loop
      vertex 17 0 8
      vertex 17 0 6
      vertex 32 0 6
    endloop
  endfacet
  facet normal 0 -1 0
    outer loop
      vertex 32 0 8
      vertex 17 0 8
      vertex 32 0 6
    endloop
  endfacet
  facet normal 0 -1 0
    outer loop
      vertex 17 0 20
      vertex 17 0 18
      vertex 32 0 18
    endloop
  endfacet
  facet normal 0 -1 0
    outer loop
      vertex 32 0 20
      vertex 17 0 20
      vertex 32 0 18
    endloop
  endfacet
endsolid OpenSCAD_Model
