solid OpenSCAD_Model
  facet normal -1 0 0
    outer loop
      vertex 0 0 0
      vertex 0 20 100
      vertex 0 20 0
    endloop
  endfacet
  facet normal -1 -0 0
    outer loop
      vertex 0 20 100
      vertex 0 0 0
      vertex 0 0 100
    endloop
  endfacet
  facet normal -0 0 1
    outer loop
      vertex 0 20 100
      vertex 50 0 100
      vertex 50 20 100
    endloop
  endfacet
  facet normal 0 0 1
    outer loop
      vertex 50 0 100
      vertex 0 20 100
      vertex 0 0 100
    endloop
  endfacet
  facet normal 1 -0 0
    outer loop
      vertex 50 0 100
      vertex 50 20 0
      vertex 50 20 100
    endloop
  endfacet
  facet normal 1 0 0
    outer loop
      vertex 50 20 0
      vertex 50 0 100
      vertex 50 0 0
    endloop
  endfacet
  facet normal 0 1 -0
    outer loop
      vertex 18 20 5
      vertex 15 20 25
      vertex 18 20 25
    endloop
  endfacet
  facet normal 0 1 0
    outer loop
      vertex 15 20 25
      vertex 18 20 5
      vertex 15 20 5
    endloop
  endfacet
  facet normal 0 1 -0
    outer loop
      vertex 33 20 5
      vertex 30 20 25
      vertex 33 20 25
    endloop
  endfacet
  facet normal 0 1 0
    outer loop
      vertex 30 20 25
      vertex 33 20 5
      vertex 30 20 5
    endloop
  endfacet
  facet normal 0 1 0
    outer loop
      vertex 25.5 20 47
      vertex 22.5 20 42
      vertex 22.5 20 47
    endloop
  endfacet
  facet normal 0 1 0
    outer loop
      vertex 22.5 20 42
      vertex 22.5 20 37
      vertex 5 20 42
    endloop
  endfacet
  facet normal 0 1 0
    outer loop
      vertex 25.5 20 47
      vertex 22.5 20 37
      vertex 22.5 20 42
    endloop
  endfacet
  facet normal 0 1 -0
    outer loop
      vertex 25.5 20 30
      vertex 22.5 20 37
      vertex 25.5 20 47
    endloop
  endfacet
  facet normal 0 1 0
    outer loop
      vertex 22.5 20 37
      vertex 25.5 20 30
      vertex 22.5 20 30
    endloop
  endfacet
  facet normal 0 1 0
    outer loop
      vertex 50 20 100
      vertex 25 20 77
      vertex 0 20 100
    endloop
  endfacet
  facet normal 0 1 -0
    outer loop
      vertex 45 20 70
      vertex 25 20 77
      vertex 50 20 100
    endloop
  endfacet
  facet normal 0 1 0
    outer loop
      vertex 5 20 70
      vertex 25 20 75
      vertex 45 20 70
    endloop
  endfacet
  facet normal 0 1 0
    outer loop
      vertex 25 20 77
      vertex 45 20 70
      vertex 25 20 75
    endloop
  endfacet
  facet normal 0 1 0
    outer loop
      vertex 50 20 100
      vertex 45 20 52
      vertex 45 20 70
    endloop
  endfacet
  facet normal 0 1 0
    outer loop
      vertex 25.5 20 47
      vertex 45 20 52
      vertex 45 20 47
    endloop
  endfacet
  facet normal 0 1 0
    outer loop
      vertex 50 20 100
      vertex 45 20 47
      vertex 45 20 52
    endloop
  endfacet
  facet normal 0 1 -0
    outer loop
      vertex 50 20 0
      vertex 45 20 47
      vertex 50 20 100
    endloop
  endfacet
  facet normal 0 1 -0
    outer loop
      vertex 33 20 25
      vertex 25.5 20 30
      vertex 45 20 30
    endloop
  endfacet
  facet normal 0 1 -0
    outer loop
      vertex 30 20 25
      vertex 25.5 20 30
      vertex 33 20 25
    endloop
  endfacet
  facet normal 0 1 0
    outer loop
      vertex 33 20 25
      vertex 45 20 30
      vertex 45 20 25
    endloop
  endfacet
  facet normal 0 1 0
    outer loop
      vertex 45 20 47
      vertex 50 20 0
      vertex 45 20 30
    endloop
  endfacet
  facet normal 0 1 0
    outer loop
      vertex 45 20 30
      vertex 50 20 0
      vertex 45 20 25
    endloop
  endfacet
  facet normal 0 1 0
    outer loop
      vertex 50 20 0
      vertex 33 20 5
      vertex 45 20 5
    endloop
  endfacet
  facet normal 0 1 0
    outer loop
      vertex 33 20 5
      vertex 50 20 0
      vertex 30 20 5
    endloop
  endfacet
  facet normal 0 1 0
    outer loop
      vertex 0 20 0
      vertex 30 20 5
      vertex 50 20 0
    endloop
  endfacet
  facet normal 0 1 0
    outer loop
      vertex 30 20 5
      vertex 0 20 0
      vertex 18 20 5
    endloop
  endfacet
  facet normal 0 1 0
    outer loop
      vertex 18 20 5
      vertex 0 20 0
      vertex 15 20 5
    endloop
  endfacet
  facet normal 0 1 0
    outer loop
      vertex 45 20 25
      vertex 50 20 0
      vertex 45 20 5
    endloop
  endfacet
  facet normal 0 1 -0
    outer loop
      vertex 20 20 77
      vertex 0 20 100
      vertex 25 20 77
    endloop
  endfacet
  facet normal 0 1 0
    outer loop
      vertex 5 20 70
      vertex 20 20 77
      vertex 20 20 75
    endloop
  endfacet
  facet normal 0 1 0
    outer loop
      vertex 25 20 75
      vertex 5 20 70
      vertex 20 20 75
    endloop
  endfacet
  facet normal 0 1 0
    outer loop
      vertex 20 20 77
      vertex 5 20 70
      vertex 0 20 100
    endloop
  endfacet
  facet normal 0 1 -0
    outer loop
      vertex 5 20 52
      vertex 0 20 100
      vertex 5 20 70
    endloop
  endfacet
  facet normal 0 1 0
    outer loop
      vertex 45 20 52
      vertex 25.5 20 47
      vertex 5 20 52
    endloop
  endfacet
  facet normal 0 1 -0
    outer loop
      vertex 22.5 20 47
      vertex 5 20 52
      vertex 25.5 20 47
    endloop
  endfacet
  facet normal 0 1 0
    outer loop
      vertex 5 20 47
      vertex 5 20 52
      vertex 22.5 20 47
    endloop
  endfacet
  facet normal 0 1 -0
    outer loop
      vertex 5 20 47
      vertex 0 20 100
      vertex 5 20 52
    endloop
  endfacet
  facet normal 0 1 0
    outer loop
      vertex 0 20 0
      vertex 5 20 47
      vertex 5 20 42
    endloop
  endfacet
  facet normal 0 1 0
    outer loop
      vertex 5 20 37
      vertex 5 20 42
      vertex 22.5 20 37
    endloop
  endfacet
  facet normal 0 1 0
    outer loop
      vertex 0 20 0
      vertex 5 20 42
      vertex 5 20 37
    endloop
  endfacet
  facet normal 0 1 0
    outer loop
      vertex 0 20 0
      vertex 5 20 37
      vertex 5 20 30
    endloop
  endfacet
  facet normal 0 1 0
    outer loop
      vertex 25.5 20 30
      vertex 30 20 25
      vertex 22.5 20 30
    endloop
  endfacet
  facet normal 0 1 0
    outer loop
      vertex 18 20 25
      vertex 22.5 20 30
      vertex 30 20 25
    endloop
  endfacet
  facet normal 0 1 0
    outer loop
      vertex 15 20 25
      vertex 22.5 20 30
      vertex 18 20 25
    endloop
  endfacet
  facet normal 0 1 0
    outer loop
      vertex 22.5 20 30
      vertex 15 20 25
      vertex 5 20 30
    endloop
  endfacet
  facet normal 0 1 0
    outer loop
      vertex 5 20 25
      vertex 5 20 30
      vertex 15 20 25
    endloop
  endfacet
  facet normal 0 1 0
    outer loop
      vertex 0 20 0
      vertex 5 20 30
      vertex 5 20 25
    endloop
  endfacet
  facet normal 0 1 0
    outer loop
      vertex 0 20 0
      vertex 5 20 25
      vertex 5 20 5
    endloop
  endfacet
  facet normal 0 1 0
    outer loop
      vertex 5 20 47
      vertex 0 20 0
      vertex 0 20 100
    endloop
  endfacet
  facet normal 0 1 0
    outer loop
      vertex 15 20 5
      vertex 0 20 0
      vertex 5 20 5
    endloop
  endfacet
  facet normal 0 0 -1
    outer loop
      vertex 0 0 0
      vertex 50 20 0
      vertex 50 0 0
    endloop
  endfacet
  facet normal -0 0 -1
    outer loop
      vertex 50 20 0
      vertex 0 0 0
      vertex 0 20 0
    endloop
  endfacet
  facet normal 0 -1 0
    outer loop
      vertex 0 0 0
      vertex 50 0 100
      vertex 0 0 100
    endloop
  endfacet
  facet normal 0 -1 -0
    outer loop
      vertex 50 0 100
      vertex 0 0 0
      vertex 50 0 0
    endloop
  endfacet
  facet normal 1 -0 0
    outer loop
      vertex 5 5 25
      vertex 5 20 5
      vertex 5 20 25
    endloop
  endfacet
  facet normal 1 0 0
    outer loop
      vertex 5 20 5
      vertex 5 5 25
      vertex 5 5 5
    endloop
  endfacet
  facet normal 1 -0 0
    outer loop
      vertex 5 5 37
      vertex 5 20 30
      vertex 5 20 37
    endloop
  endfacet
  facet normal 1 0 0
    outer loop
      vertex 5 20 30
      vertex 5 5 37
      vertex 5 5 30
    endloop
  endfacet
  facet normal 1 -0 0
    outer loop
      vertex 5 5 47
      vertex 5 20 42
      vertex 5 20 47
    endloop
  endfacet
  facet normal 1 0 0
    outer loop
      vertex 5 20 42
      vertex 5 5 47
      vertex 5 5 42
    endloop
  endfacet
  facet normal 1 -0 0
    outer loop
      vertex 5 5 70
      vertex 5 20 52
      vertex 5 20 70
    endloop
  endfacet
  facet normal 1 0 0
    outer loop
      vertex 5 20 52
      vertex 5 5 70
      vertex 5 5 52
    endloop
  endfacet
  facet normal -1 0 0
    outer loop
      vertex 45 5 5
      vertex 45 20 25
      vertex 45 20 5
    endloop
  endfacet
  facet normal -1 -0 0
    outer loop
      vertex 45 20 25
      vertex 45 5 5
      vertex 45 5 25
    endloop
  endfacet
  facet normal -1 0 0
    outer loop
      vertex 45 5 30
      vertex 45 20 47
      vertex 45 20 30
    endloop
  endfacet
  facet normal -1 -0 0
    outer loop
      vertex 45 20 47
      vertex 45 5 30
      vertex 45 5 47
    endloop
  endfacet
  facet normal -1 0 0
    outer loop
      vertex 45 5 52
      vertex 45 20 70
      vertex 45 20 52
    endloop
  endfacet
  facet normal -1 -0 0
    outer loop
      vertex 45 20 70
      vertex 45 5 52
      vertex 45 5 70
    endloop
  endfacet
  facet normal -0 0 1
    outer loop
      vertex 5 20 5
      vertex 15 5 5
      vertex 15 20 5
    endloop
  endfacet
  facet normal 0 0 1
    outer loop
      vertex 15 5 5
      vertex 5 20 5
      vertex 5 5 5
    endloop
  endfacet
  facet normal -0 0 1
    outer loop
      vertex 33 20 5
      vertex 45 5 5
      vertex 45 20 5
    endloop
  endfacet
  facet normal 0 0 1
    outer loop
      vertex 45 5 5
      vertex 33 20 5
      vertex 33 5 5
    endloop
  endfacet
  facet normal -0 0 1
    outer loop
      vertex 18 20 5
      vertex 30 5 5
      vertex 30 20 5
    endloop
  endfacet
  facet normal 0 0 1
    outer loop
      vertex 30 5 5
      vertex 18 20 5
      vertex 18 5 5
    endloop
  endfacet
  facet normal 0 1 -0
    outer loop
      vertex 15 5 5
      vertex 5 5 25
      vertex 15 5 25
    endloop
  endfacet
  facet normal 0 1 0
    outer loop
      vertex 5 5 25
      vertex 15 5 5
      vertex 5 5 5
    endloop
  endfacet
  facet normal 0 1 -0
    outer loop
      vertex 45 5 5
      vertex 33 5 25
      vertex 45 5 25
    endloop
  endfacet
  facet normal 0 1 0
    outer loop
      vertex 33 5 25
      vertex 45 5 5
      vertex 33 5 5
    endloop
  endfacet
  facet normal 0 1 -0
    outer loop
      vertex 22.5 5 30
      vertex 5 5 37
      vertex 22.5 5 37
    endloop
  endfacet
  facet normal 0 1 0
    outer loop
      vertex 5 5 37
      vertex 22.5 5 30
      vertex 5 5 30
    endloop
  endfacet
  facet normal 0 1 -0
    outer loop
      vertex 45 5 30
      vertex 25.5 5 47
      vertex 45 5 47
    endloop
  endfacet
  facet normal 0 1 0
    outer loop
      vertex 25.5 5 47
      vertex 45 5 30
      vertex 25.5 5 30
    endloop
  endfacet
  facet normal 0 1 -0
    outer loop
      vertex 22.5 5 42
      vertex 5 5 47
      vertex 22.5 5 47
    endloop
  endfacet
  facet normal 0 1 0
    outer loop
      vertex 5 5 47
      vertex 22.5 5 42
      vertex 5 5 42
    endloop
  endfacet
  facet normal 0 1 -0
    outer loop
      vertex 45 5 52
      vertex 5 5 70
      vertex 45 5 70
    endloop
  endfacet
  facet normal 0 1 0
    outer loop
      vertex 5 5 70
      vertex 45 5 52
      vertex 5 5 52
    endloop
  endfacet
  facet normal 0 1 -0
    outer loop
      vertex 30 5 5
      vertex 18 5 25
      vertex 30 5 25
    endloop
  endfacet
  facet normal 0 1 0
    outer loop
      vertex 18 5 25
      vertex 30 5 5
      vertex 18 5 5
    endloop
  endfacet
  facet normal -0 0 1
    outer loop
      vertex 5 20 30
      vertex 22.5 5 30
      vertex 22.5 20 30
    endloop
  endfacet
  facet normal 0 0 1
    outer loop
      vertex 22.5 5 30
      vertex 5 20 30
      vertex 5 5 30
    endloop
  endfacet
  facet normal -0 0 1
    outer loop
      vertex 25.5 20 30
      vertex 45 5 30
      vertex 45 20 30
    endloop
  endfacet
  facet normal 0 0 1
    outer loop
      vertex 45 5 30
      vertex 25.5 20 30
      vertex 25.5 5 30
    endloop
  endfacet
  facet normal 0 0 -1
    outer loop
      vertex 18 5 25
      vertex 30 20 25
      vertex 30 5 25
    endloop
  endfacet
  facet normal -0 0 -1
    outer loop
      vertex 30 20 25
      vertex 18 5 25
      vertex 18 20 25
    endloop
  endfacet
  facet normal 0 0 -1
    outer loop
      vertex 5 5 25
      vertex 15 20 25
      vertex 15 5 25
    endloop
  endfacet
  facet normal -0 0 -1
    outer loop
      vertex 15 20 25
      vertex 5 5 25
      vertex 5 20 25
    endloop
  endfacet
  facet normal 0 0 -1
    outer loop
      vertex 33 5 25
      vertex 45 20 25
      vertex 45 5 25
    endloop
  endfacet
  facet normal -0 0 -1
    outer loop
      vertex 45 20 25
      vertex 33 5 25
      vertex 33 20 25
    endloop
  endfacet
  facet normal -0 0 1
    outer loop
      vertex 5 20 52
      vertex 45 5 52
      vertex 45 20 52
    endloop
  endfacet
  facet normal 0 0 1
    outer loop
      vertex 45 5 52
      vertex 5 20 52
      vertex 5 5 52
    endloop
  endfacet
  facet normal 0 0 -1
    outer loop
      vertex 5 5 47
      vertex 22.5 20 47
      vertex 22.5 5 47
    endloop
  endfacet
  facet normal -0 0 -1
    outer loop
      vertex 22.5 20 47
      vertex 5 5 47
      vertex 5 20 47
    endloop
  endfacet
  facet normal 0 0 -1
    outer loop
      vertex 25.5 5 47
      vertex 45 20 47
      vertex 45 5 47
    endloop
  endfacet
  facet normal -0 0 -1
    outer loop
      vertex 45 20 47
      vertex 25.5 5 47
      vertex 25.5 20 47
    endloop
  endfacet
  facet normal -0 0 1
    outer loop
      vertex 5 20 42
      vertex 22.5 5 42
      vertex 22.5 20 42
    endloop
  endfacet
  facet normal 0 0 1
    outer loop
      vertex 22.5 5 42
      vertex 5 20 42
      vertex 5 5 42
    endloop
  endfacet
  facet normal 0 0 -1
    outer loop
      vertex 5 5 37
      vertex 22.5 20 37
      vertex 22.5 5 37
    endloop
  endfacet
  facet normal -0 0 -1
    outer loop
      vertex 22.5 20 37
      vertex 5 5 37
      vertex 5 20 37
    endloop
  endfacet
  facet normal 0 0 -1
    outer loop
      vertex 5 5 70
      vertex 45 20 70
      vertex 45 5 70
    endloop
  endfacet
  facet normal -0 0 -1
    outer loop
      vertex 45 20 70
      vertex 5 5 70
      vertex 5 20 70
    endloop
  endfacet
  facet normal -1 0 0
    outer loop
      vertex 30 5 5
      vertex 30 20 25
      vertex 30 20 5
    endloop
  endfacet
  facet normal -1 -0 0
    outer loop
      vertex 30 20 25
      vertex 30 5 5
      vertex 30 5 25
    endloop
  endfacet
  facet normal 1 -0 0
    outer loop
      vertex 33 5 25
      vertex 33 20 5
      vertex 33 20 25
    endloop
  endfacet
  facet normal 1 0 0
    outer loop
      vertex 33 20 5
      vertex 33 5 25
      vertex 33 5 5
    endloop
  endfacet
  facet normal -1 0 0
    outer loop
      vertex 15 5 5
      vertex 15 20 25
      vertex 15 20 5
    endloop
  endfacet
  facet normal -1 -0 0
    outer loop
      vertex 15 20 25
      vertex 15 5 5
      vertex 15 5 25
    endloop
  endfacet
  facet normal 1 -0 0
    outer loop
      vertex 18 5 25
      vertex 18 20 5
      vertex 18 20 25
    endloop
  endfacet
  facet normal 1 0 0
    outer loop
      vertex 18 20 5
      vertex 18 5 25
      vertex 18 5 5
    endloop
  endfacet
  facet normal -1 0 0
    outer loop
      vertex 22.5 5 30
      vertex 22.5 20 37
      vertex 22.5 20 30
    endloop
  endfacet
  facet normal -1 -0 0
    outer loop
      vertex 22.5 20 37
      vertex 22.5 5 30
      vertex 22.5 5 37
    endloop
  endfacet
  facet normal -1 0 0
    outer loop
      vertex 22.5 5 42
      vertex 22.5 20 47
      vertex 22.5 20 42
    endloop
  endfacet
  facet normal -1 -0 0
    outer loop
      vertex 22.5 20 47
      vertex 22.5 5 42
      vertex 22.5 5 47
    endloop
  endfacet
  facet normal 1 -0 0
    outer loop
      vertex 25.5 5 47
      vertex 25.5 20 30
      vertex 25.5 20 47
    endloop
  endfacet
  facet normal 1 0 0
    outer loop
      vertex 25.5 20 30
      vertex 25.5 5 47
      vertex 25.5 5 30
    endloop
  endfacet
  facet normal -1 0 0
    outer loop
      vertex 20 20 75
      vertex 20 23 77
      vertex 20 23 75
    endloop
  endfacet
  facet normal -1 -0 0
    outer loop
      vertex 20 23 77
      vertex 20 20 75
      vertex 20 20 77
    endloop
  endfacet
  facet normal -0 0 1
    outer loop
      vertex 20 23 77
      vertex 25 20 77
      vertex 25 23 77
    endloop
  endfacet
  facet normal 0 0 1
    outer loop
      vertex 25 20 77
      vertex 20 23 77
      vertex 20 20 77
    endloop
  endfacet
  facet normal 1 -0 0
    outer loop
      vertex 25 20 77
      vertex 25 23 75
      vertex 25 23 77
    endloop
  endfacet
  facet normal 1 0 0
    outer loop
      vertex 25 23 75
      vertex 25 20 77
      vertex 25 20 75
    endloop
  endfacet
  facet normal 0 0 -1
    outer loop
      vertex 20 20 75
      vertex 25 23 75
      vertex 25 20 75
    endloop
  endfacet
  facet normal -0 0 -1
    outer loop
      vertex 25 23 75
      vertex 20 20 75
      vertex 20 23 75
    endloop
  endfacet
  facet normal 0 1 -0
    outer loop
      vertex 25 23 75
      vertex 20 23 77
      vertex 25 23 77
    endloop
  endfacet
  facet normal 0 1 0
    outer loop
      vertex 20 23 77
      vertex 25 23 75
      vertex 20 23 75
    endloop
  endfacet
endsolid OpenSCAD_Model
