solid OpenSCAD_Model
  facet normal -1 0 0
    outer loop
      vertex 0 0 0
      vertex 0 20 100
      vertex 0 20 0
    endloop
  endfacet
  facet normal -1 -0 0
    outer loop
      vertex 0 20 100
      vertex 0 0 0
      vertex 0 0 100
    endloop
  endfacet
  facet normal -0 0 1
    outer loop
      vertex 0 20 100
      vertex 40 0 100
      vertex 40 20 100
    endloop
  endfacet
  facet normal 0 0 1
    outer loop
      vertex 40 0 100
      vertex 0 20 100
      vertex 0 0 100
    endloop
  endfacet
  facet normal 1 -0 0
    outer loop
      vertex 40 0 100
      vertex 40 20 0
      vertex 40 20 100
    endloop
  endfacet
  facet normal 1 0 0
    outer loop
      vertex 40 20 0
      vertex 40 0 100
      vertex 40 0 0
    endloop
  endfacet
  facet normal 0 1 0
    outer loop
      vertex 40 20 100
      vertex 39 20 99
      vertex 0 20 100
    endloop
  endfacet
  facet normal 0 1 0
    outer loop
      vertex 40 20 100
      vertex 39 20 81
      vertex 39 20 99
    endloop
  endfacet
  facet normal 0 1 0
    outer loop
      vertex 39 20 81
      vertex 39 20 80
      vertex 1 20 81
    endloop
  endfacet
  facet normal 0 1 0
    outer loop
      vertex 40 20 100
      vertex 39 20 80
      vertex 39 20 81
    endloop
  endfacet
  facet normal 0 1 0
    outer loop
      vertex 40 20 100
      vertex 39 20 61
      vertex 39 20 80
    endloop
  endfacet
  facet normal 0 1 0
    outer loop
      vertex 39 20 61
      vertex 39 20 60
      vertex 1 20 61
    endloop
  endfacet
  facet normal 0 1 0
    outer loop
      vertex 40 20 100
      vertex 39 20 60
      vertex 39 20 61
    endloop
  endfacet
  facet normal 0 1 0
    outer loop
      vertex 40 20 100
      vertex 39 20 41
      vertex 39 20 60
    endloop
  endfacet
  facet normal 0 1 0
    outer loop
      vertex 39 20 41
      vertex 39 20 40
      vertex 1 20 41
    endloop
  endfacet
  facet normal 0 1 0
    outer loop
      vertex 40 20 100
      vertex 39 20 40
      vertex 39 20 41
    endloop
  endfacet
  facet normal 0 1 -0
    outer loop
      vertex 40 20 0
      vertex 39 20 40
      vertex 40 20 100
    endloop
  endfacet
  facet normal 0 1 0
    outer loop
      vertex 39 20 21
      vertex 25 20 5
      vertex 1 20 21
    endloop
  endfacet
  facet normal 0 1 0
    outer loop
      vertex 40 20 0
      vertex 25 20 5
      vertex 39 20 21
    endloop
  endfacet
  facet normal 0 1 0
    outer loop
      vertex 25 20 4
      vertex 40 20 0
      vertex 15 20 4
    endloop
  endfacet
  facet normal 0 1 0
    outer loop
      vertex 25 20 5
      vertex 40 20 0
      vertex 25 20 4
    endloop
  endfacet
  facet normal 0 1 0
    outer loop
      vertex 39 20 40
      vertex 40 20 0
      vertex 39 20 21
    endloop
  endfacet
  facet normal 0 1 -0
    outer loop
      vertex 1 20 99
      vertex 0 20 100
      vertex 39 20 99
    endloop
  endfacet
  facet normal 0 1 -0
    outer loop
      vertex 1 20 81
      vertex 0 20 100
      vertex 1 20 99
    endloop
  endfacet
  facet normal 0 1 0
    outer loop
      vertex 1 20 80
      vertex 1 20 81
      vertex 39 20 80
    endloop
  endfacet
  facet normal 0 1 -0
    outer loop
      vertex 1 20 80
      vertex 0 20 100
      vertex 1 20 81
    endloop
  endfacet
  facet normal 0 1 -0
    outer loop
      vertex 1 20 61
      vertex 0 20 100
      vertex 1 20 80
    endloop
  endfacet
  facet normal 0 1 0
    outer loop
      vertex 1 20 60
      vertex 1 20 61
      vertex 39 20 60
    endloop
  endfacet
  facet normal 0 1 -0
    outer loop
      vertex 1 20 60
      vertex 0 20 100
      vertex 1 20 61
    endloop
  endfacet
  facet normal 0 1 -0
    outer loop
      vertex 1 20 41
      vertex 0 20 100
      vertex 1 20 60
    endloop
  endfacet
  facet normal 0 1 0
    outer loop
      vertex 1 20 40
      vertex 1 20 41
      vertex 39 20 40
    endloop
  endfacet
  facet normal 0 1 -0
    outer loop
      vertex 1 20 40
      vertex 0 20 100
      vertex 1 20 41
    endloop
  endfacet
  facet normal 0 1 0
    outer loop
      vertex 0 20 0
      vertex 1 20 40
      vertex 1 20 21
    endloop
  endfacet
  facet normal 0 1 -0
    outer loop
      vertex 15 20 5
      vertex 1 20 21
      vertex 25 20 5
    endloop
  endfacet
  facet normal 0 1 0
    outer loop
      vertex 0 20 0
      vertex 15 20 5
      vertex 15 20 4
    endloop
  endfacet
  facet normal 0 1 0
    outer loop
      vertex 1 20 40
      vertex 0 20 0
      vertex 0 20 100
    endloop
  endfacet
  facet normal 0 1 0
    outer loop
      vertex 15 20 5
      vertex 0 20 0
      vertex 1 20 21
    endloop
  endfacet
  facet normal 0 1 0
    outer loop
      vertex 0 20 0
      vertex 15 20 4
      vertex 40 20 0
    endloop
  endfacet
  facet normal 0 0 -1
    outer loop
      vertex 0 0 0
      vertex 40 20 0
      vertex 40 0 0
    endloop
  endfacet
  facet normal -0 0 -1
    outer loop
      vertex 40 20 0
      vertex 0 0 0
      vertex 0 20 0
    endloop
  endfacet
  facet normal 0 -1 0
    outer loop
      vertex 0 0 0
      vertex 40 0 100
      vertex 0 0 100
    endloop
  endfacet
  facet normal 0 -1 -0
    outer loop
      vertex 40 0 100
      vertex 0 0 0
      vertex 40 0 0
    endloop
  endfacet
  facet normal 1 -0 0
    outer loop
      vertex 1 1 99
      vertex 1 20 81
      vertex 1 20 99
    endloop
  endfacet
  facet normal 1 0 0
    outer loop
      vertex 1 20 81
      vertex 1 1 99
      vertex 1 1 81
    endloop
  endfacet
  facet normal 1 -0 0
    outer loop
      vertex 1 1 40
      vertex 1 20 21
      vertex 1 20 40
    endloop
  endfacet
  facet normal 1 0 0
    outer loop
      vertex 1 20 21
      vertex 1 1 40
      vertex 1 1 21
    endloop
  endfacet
  facet normal 1 -0 0
    outer loop
      vertex 1 1 80
      vertex 1 20 61
      vertex 1 20 80
    endloop
  endfacet
  facet normal 1 0 0
    outer loop
      vertex 1 20 61
      vertex 1 1 80
      vertex 1 1 61
    endloop
  endfacet
  facet normal 1 -0 0
    outer loop
      vertex 1 1 60
      vertex 1 20 41
      vertex 1 20 60
    endloop
  endfacet
  facet normal 1 0 0
    outer loop
      vertex 1 20 41
      vertex 1 1 60
      vertex 1 1 41
    endloop
  endfacet
  facet normal 0 0 -1
    outer loop
      vertex 1 1 99
      vertex 39 20 99
      vertex 39 1 99
    endloop
  endfacet
  facet normal -0 0 -1
    outer loop
      vertex 39 20 99
      vertex 1 1 99
      vertex 1 20 99
    endloop
  endfacet
  facet normal -1 0 0
    outer loop
      vertex 39 1 81
      vertex 39 20 99
      vertex 39 20 81
    endloop
  endfacet
  facet normal -1 -0 0
    outer loop
      vertex 39 20 99
      vertex 39 1 81
      vertex 39 1 99
    endloop
  endfacet
  facet normal -1 0 0
    outer loop
      vertex 39 1 21
      vertex 39 20 40
      vertex 39 20 21
    endloop
  endfacet
  facet normal -1 -0 0
    outer loop
      vertex 39 20 40
      vertex 39 1 21
      vertex 39 1 40
    endloop
  endfacet
  facet normal -1 0 0
    outer loop
      vertex 39 1 61
      vertex 39 20 80
      vertex 39 20 61
    endloop
  endfacet
  facet normal -1 -0 0
    outer loop
      vertex 39 20 80
      vertex 39 1 61
      vertex 39 1 80
    endloop
  endfacet
  facet normal -1 0 0
    outer loop
      vertex 39 1 41
      vertex 39 20 60
      vertex 39 20 41
    endloop
  endfacet
  facet normal -1 -0 0
    outer loop
      vertex 39 20 60
      vertex 39 1 41
      vertex 39 1 60
    endloop
  endfacet
  facet normal 0 1 -0
    outer loop
      vertex 39 1 81
      vertex 1 1 99
      vertex 39 1 99
    endloop
  endfacet
  facet normal 0 1 0
    outer loop
      vertex 1 1 99
      vertex 39 1 81
      vertex 1 1 81
    endloop
  endfacet
  facet normal 0 1 -0
    outer loop
      vertex 39 1 21
      vertex 1 1 40
      vertex 39 1 40
    endloop
  endfacet
  facet normal 0 1 0
    outer loop
      vertex 1 1 40
      vertex 39 1 21
      vertex 1 1 21
    endloop
  endfacet
  facet normal 0 1 -0
    outer loop
      vertex 39 1 61
      vertex 1 1 80
      vertex 39 1 80
    endloop
  endfacet
  facet normal 0 1 0
    outer loop
      vertex 1 1 80
      vertex 39 1 61
      vertex 1 1 61
    endloop
  endfacet
  facet normal 0 1 -0
    outer loop
      vertex 39 1 41
      vertex 1 1 60
      vertex 39 1 60
    endloop
  endfacet
  facet normal 0 1 0
    outer loop
      vertex 1 1 60
      vertex 39 1 41
      vertex 1 1 41
    endloop
  endfacet
  facet normal -0 0 1
    outer loop
      vertex 1 20 21
      vertex 39 1 21
      vertex 39 20 21
    endloop
  endfacet
  facet normal 0 0 1
    outer loop
      vertex 39 1 21
      vertex 1 20 21
      vertex 1 1 21
    endloop
  endfacet
  facet normal -1 0 0
    outer loop
      vertex 15 20 4
      vertex 15 22 5
      vertex 15 22 4
    endloop
  endfacet
  facet normal -1 -0 0
    outer loop
      vertex 15 22 5
      vertex 15 20 4
      vertex 15 20 5
    endloop
  endfacet
  facet normal -0 0 1
    outer loop
      vertex 15 22 5
      vertex 25 20 5
      vertex 25 22 5
    endloop
  endfacet
  facet normal 0 0 1
    outer loop
      vertex 25 20 5
      vertex 15 22 5
      vertex 15 20 5
    endloop
  endfacet
  facet normal 1 -0 0
    outer loop
      vertex 25 20 5
      vertex 25 22 4
      vertex 25 22 5
    endloop
  endfacet
  facet normal 1 0 0
    outer loop
      vertex 25 22 4
      vertex 25 20 5
      vertex 25 20 4
    endloop
  endfacet
  facet normal 0 0 -1
    outer loop
      vertex 15 20 4
      vertex 25 22 4
      vertex 25 20 4
    endloop
  endfacet
  facet normal -0 0 -1
    outer loop
      vertex 25 22 4
      vertex 15 20 4
      vertex 15 22 4
    endloop
  endfacet
  facet normal 0 1 -0
    outer loop
      vertex 25 22 4
      vertex 15 22 5
      vertex 25 22 5
    endloop
  endfacet
  facet normal 0 1 0
    outer loop
      vertex 15 22 5
      vertex 25 22 4
      vertex 15 22 4
    endloop
  endfacet
  facet normal -0 0 1
    outer loop
      vertex 1 20 81
      vertex 39 1 81
      vertex 39 20 81
    endloop
  endfacet
  facet normal 0 0 1
    outer loop
      vertex 39 1 81
      vertex 1 20 81
      vertex 1 1 81
    endloop
  endfacet
  facet normal 0 0 -1
    outer loop
      vertex 1 1 80
      vertex 39 20 80
      vertex 39 1 80
    endloop
  endfacet
  facet normal -0 0 -1
    outer loop
      vertex 39 20 80
      vertex 1 1 80
      vertex 1 20 80
    endloop
  endfacet
  facet normal -0 0 1
    outer loop
      vertex 1 20 61
      vertex 39 1 61
      vertex 39 20 61
    endloop
  endfacet
  facet normal 0 0 1
    outer loop
      vertex 39 1 61
      vertex 1 20 61
      vertex 1 1 61
    endloop
  endfacet
  facet normal 0 0 -1
    outer loop
      vertex 1 1 60
      vertex 39 20 60
      vertex 39 1 60
    endloop
  endfacet
  facet normal -0 0 -1
    outer loop
      vertex 39 20 60
      vertex 1 1 60
      vertex 1 20 60
    endloop
  endfacet
  facet normal -0 0 1
    outer loop
      vertex 1 20 41
      vertex 39 1 41
      vertex 39 20 41
    endloop
  endfacet
  facet normal 0 0 1
    outer loop
      vertex 39 1 41
      vertex 1 20 41
      vertex 1 1 41
    endloop
  endfacet
  facet normal 0 0 -1
    outer loop
      vertex 1 1 40
      vertex 39 20 40
      vertex 39 1 40
    endloop
  endfacet
  facet normal -0 0 -1
    outer loop
      vertex 39 20 40
      vertex 1 1 40
      vertex 1 20 40
    endloop
  endfacet
endsolid OpenSCAD_Model
